{"title":"Linkin Park Live From MSG 2011","uid":6194895,"size":8398010788,"categoryP":"video","categoryS":"music_videos","magnet":"?xt=urn:btih:af51c643ac00671dc347e526f943bc9cbab161e3&amp;dn=Linkin+Park+Live+From+MSG+2011&amp;tr=udp%3A%2F%2Ftracker.openbittorrent.com%3A80&amp;tr=udp%3A%2F%2Fopen.demonii.com%3A1337&amp;tr=udp%3A%2F%2Ftracker.coppersurfer.tk%3A6969&amp;tr=udp%3A%2F%2Fexodus.desync.com%3A6969","seeders":0,"leechers":3,"uploader":"chrono4445","files":3,"time":1298425789,"description":"Linkin Park \nFeb. 4 2011 \nMSG, New York, NY \n\nSource: TV &gt; VideoReDo &gt; 1080i .TS \n\nCaptured and Edited by: DeeSeven \n\nSetlist: \n\n???? \n???? \n???? \n\nVideo Notes: \n\nGeneral \nID : 1 (0x1) \nComplete name : H:\\Linkin Park Live From Madison Square Garden 2011.ts \nFormat : MPEG-TS \nFormat/Info : Audio Coding 3 \nFile size : 7.82 GiB \nDuration : 1h 25mn \nOverall bit rate : 13.0 Mbps \n\nVideo \nID : 224 (0xE0) \nMenu ID : 1 (0x1) \nFormat : MPEG Video \nFormat version : Version 2 \nFormat profile : Main@High \nFormat settings, BVOP : Yes \nFormat settings, Matrix : Default \nCodec ID : 2 \nDuration : 1h 25mn \nBit rate mode : Variable \nBit rate : 12.0 Mbps \nNominal bit rate : 65.0 Mbps \nWidth : 1 920 pixels \nHeight : 1 080 pixels \nDisplay aspect ratio : 16:9 \nFrame rate : 29.970 fps \nColor space : YUV \nChroma subsampling : 4:2:0 \nBit depth : 8 bits \nScan type : Interlaced \nScan order : Top Field First \nCompression mode : Lossy \nBits/(Pixel*Frame) : 0.193 \nStream size : 7.20 GiB (92%) \n\nAudio \nID : 128 (0x80) \nMenu ID : 1 (0x1) \nFormat : AC-3 \nFormat/Info : Audio Coding 3 \nMode extension : CM (complete main) \nCodec ID : 129 \nDuration : 1h 25mn \nBit rate mode : Constant \nBit rate : 384 Kbps \nChannel(s) : 6 channels \nChannel positions : Front: L C R, Side: L R, LFE \nSampling rate : 48.0 KHz \nBit depth : 16 bits \nCompression mode : Lossy \nStream size : 236 MiB (3%) \nLanguage : English \n\nText \nID : 224 (0xE0)608-1 \nMenu ID : 1 (0x1) \nFormat : EIA-608 \nMuxing mode : A/53 / DTVCC Transport \nMuxing mode, more info : Muxed in Video #1 \nDuration : 1h 25mn \nStream size : 0.00 Byte (0%) \n\n\nUploader Notes: \n\nas requsted...I'll have a dvd verison of this shortly once KoL dvd finishes","torrent":{"xt":"urn:btih:af51c643ac00671dc347e526f943bc9cbab161e3","amp;dn":"Linkin+Park+Live+From+MSG+2011","amp;tr":["udp%3A%2F%2Ftracker.openbittorrent.com%3A80","udp%3A%2F%2Fopen.demonii.com%3A1337","udp%3A%2F%2Ftracker.coppersurfer.tk%3A6969","udp%3A%2F%2Fexodus.desync.com%3A6969"],"infoHash":"af51c643ac00671dc347e526f943bc9cbab161e3","infoHashBuffer":{"type":"Buffer","data":[175,81,198,67,172,0,103,29,195,71,229,38,249,67,188,156,186,177,97,227]},"announce":[],"urlList":[]}}